# xmcd
#
# Track frame offsets: 
#        150
#        17084
#        32694
#        49224
#        65587
#        82284
#        98960
#        118179
#        129025
#        147094
#        162565
#        184507
#        200946
#        225765
#        244768
#        259076
#        277786
#        294392
#        308400
#
# Disc length: 4368 seconds
#
# Revision: 0
# Processed by: cddbd v1.5.2PL0 Copyright (c) Steve Scherf et al.
# Submitted via: ExactAudioCopy v0.99pb4
#
DISCID=08110e13
DTITLE=The Dynamic Superiors - The Dynamic Superiors and Pure Pleasure
DYEAR=1975
DGENRE=Motown - 70s
TTITLE0=Shoe Shoe Shine
TTITLE1=Soon
TTITLE2=Leave It Alone
TTITLE3=Don't Send Nobody Else
TTITLE4=Romeo
TTITLE5=Star Of My Life
TTITLE6=Cry When You Want To
TTITLE7=I Got Away
TTITLE8=One-Nighter
TTITLE9=Release Me
TTITLE10=Deception
TTITLE11=Pleasure
TTITLE12=Nobody's Gonna Change Me
TTITLE13=Feeling Mellow
TTITLE14=Face The Music
TTITLE15=Hit And Run Lovers
TTITLE16=A Better Way
TTITLE17=Don't Give Up On Me Baby
TTITLE18=Ain't Nothing Like The Real Thing
EXTD=
EXTT0=
EXTT1=
EXTT2=
EXTT3=
EXTT4=
EXTT5=
EXTT6=
EXTT7=
EXTT8=
EXTT9=
EXTT10=
EXTT11=
EXTT12=
EXTT13=
EXTT14=
EXTT15=
EXTT16=
EXTT17=
EXTT18=
PLAYORDER=
